<mxfile host="Electron" modified="2024-06-28T15:26:52.500Z" agent="Mozilla/5.0 (Macintosh; Intel Mac OS X 10_15_7) AppleWebKit/537.36 (KHTML, like Gecko) draw.io/24.6.1 Chrome/124.0.6367.207 Electron/30.0.6 Safari/537.36" etag="x7oSRN_bSmVpMYCH7VmB" version="24.6.1" type="device">
  <diagram id="C5RBs43oDa-KdzZeNtuy" name="Page-1">
    <mxGraphModel dx="1026" dy="874" grid="0" gridSize="10" guides="1" tooltips="1" connect="1" arrows="1" fold="1" page="1" pageScale="1" pageWidth="827" pageHeight="1169" background="#ffffff" math="0" shadow="0">
      <root>
        <mxCell id="WIyWlLk6GJQsqaUBKTNV-0" />
        <mxCell id="WIyWlLk6GJQsqaUBKTNV-1" parent="WIyWlLk6GJQsqaUBKTNV-0" />
        <mxCell id="A8jI9ixNdDlGXySxQDu9-9" style="edgeStyle=orthogonalEdgeStyle;rounded=0;orthogonalLoop=1;jettySize=auto;html=1;entryX=0;entryY=0.5;entryDx=0;entryDy=0;fontFamily=Helvetica;fontSize=12;fontColor=#000000;strokeColor=#000000;strokeWidth=2;endArrow=openThin;endFill=0;" parent="WIyWlLk6GJQsqaUBKTNV-1" source="A8jI9ixNdDlGXySxQDu9-1" target="A8jI9ixNdDlGXySxQDu9-2" edge="1">
          <mxGeometry relative="1" as="geometry" />
        </mxCell>
        <mxCell id="A8jI9ixNdDlGXySxQDu9-1" value="Start" style="ellipse;whiteSpace=wrap;html=1;aspect=fixed;strokeColor=#000000;strokeWidth=2;fillColor=#FFFFFF;fontColor=#000000;" parent="WIyWlLk6GJQsqaUBKTNV-1" vertex="1">
          <mxGeometry x="32" y="94" width="54" height="54" as="geometry" />
        </mxCell>
        <mxCell id="A8jI9ixNdDlGXySxQDu9-10" style="edgeStyle=orthogonalEdgeStyle;shape=connector;rounded=0;orthogonalLoop=1;jettySize=auto;html=1;entryX=0.5;entryY=0;entryDx=0;entryDy=0;labelBackgroundColor=default;strokeColor=#000000;strokeWidth=2;align=center;verticalAlign=middle;fontFamily=Helvetica;fontSize=12;fontColor=#000000;endArrow=openThin;endFill=0;" parent="WIyWlLk6GJQsqaUBKTNV-1" source="A8jI9ixNdDlGXySxQDu9-2" target="A8jI9ixNdDlGXySxQDu9-4" edge="1">
          <mxGeometry relative="1" as="geometry" />
        </mxCell>
        <mxCell id="A8jI9ixNdDlGXySxQDu9-2" value="Step 1. Initial search string:&lt;br&gt;&lt;font face=&quot;Verdana&quot;&gt;TITLE(&quot;multi-agent&quot; OR multiagent) &lt;br&gt;OR AUTHKEY(&lt;/font&gt;&lt;span style=&quot;font-family: Verdana;&quot;&gt;&quot;multi-agent&quot; OR multiagent&lt;/span&gt;&lt;font face=&quot;Verdana&quot;&gt;)&lt;/font&gt;" style="rounded=1;whiteSpace=wrap;html=1;fontColor=#000000;strokeColor=#000000;strokeWidth=2;fillColor=#FFFFFF;" parent="WIyWlLk6GJQsqaUBKTNV-1" vertex="1">
          <mxGeometry x="125" y="91" width="290" height="60" as="geometry" />
        </mxCell>
        <mxCell id="A8jI9ixNdDlGXySxQDu9-11" style="edgeStyle=orthogonalEdgeStyle;shape=connector;rounded=0;orthogonalLoop=1;jettySize=auto;html=1;entryX=0.5;entryY=0;entryDx=0;entryDy=0;labelBackgroundColor=default;strokeColor=#000000;strokeWidth=2;align=center;verticalAlign=middle;fontFamily=Helvetica;fontSize=12;fontColor=#000000;endArrow=openThin;endFill=0;" parent="WIyWlLk6GJQsqaUBKTNV-1" source="A8jI9ixNdDlGXySxQDu9-4" target="A8jI9ixNdDlGXySxQDu9-5" edge="1">
          <mxGeometry relative="1" as="geometry" />
        </mxCell>
        <mxCell id="A8jI9ixNdDlGXySxQDu9-4" value="Step 2. Search in Scopus and document extraction" style="rounded=1;whiteSpace=wrap;html=1;fontColor=#000000;strokeColor=#000000;strokeWidth=2;fillColor=#FFFFFF;" parent="WIyWlLk6GJQsqaUBKTNV-1" vertex="1">
          <mxGeometry x="125" y="191" width="290" height="60" as="geometry" />
        </mxCell>
        <mxCell id="A8jI9ixNdDlGXySxQDu9-12" style="edgeStyle=orthogonalEdgeStyle;shape=connector;rounded=0;orthogonalLoop=1;jettySize=auto;html=1;labelBackgroundColor=default;strokeColor=#000000;strokeWidth=2;align=center;verticalAlign=middle;fontFamily=Helvetica;fontSize=12;fontColor=#000000;endArrow=openThin;endFill=0;" parent="WIyWlLk6GJQsqaUBKTNV-1" source="A8jI9ixNdDlGXySxQDu9-5" target="A8jI9ixNdDlGXySxQDu9-6" edge="1">
          <mxGeometry relative="1" as="geometry" />
        </mxCell>
        <mxCell id="A8jI9ixNdDlGXySxQDu9-5" value="Step 3. Review of titles and keywords of documents and titles of references" style="rounded=1;whiteSpace=wrap;html=1;fontColor=#000000;strokeColor=#000000;strokeWidth=2;fillColor=#FFFFFF;" parent="WIyWlLk6GJQsqaUBKTNV-1" vertex="1">
          <mxGeometry x="125" y="291" width="290" height="60" as="geometry" />
        </mxCell>
        <mxCell id="A8jI9ixNdDlGXySxQDu9-13" value="Yes" style="edgeStyle=orthogonalEdgeStyle;shape=connector;rounded=0;orthogonalLoop=1;jettySize=auto;html=1;entryX=0.5;entryY=0;entryDx=0;entryDy=0;labelBackgroundColor=#FFFFFF;strokeColor=#000000;strokeWidth=2;align=center;verticalAlign=middle;fontFamily=Helvetica;fontSize=12;fontColor=#000000;endArrow=openThin;endFill=0;" parent="WIyWlLk6GJQsqaUBKTNV-1" source="A8jI9ixNdDlGXySxQDu9-6" target="A8jI9ixNdDlGXySxQDu9-7" edge="1">
          <mxGeometry y="-15" relative="1" as="geometry">
            <mxPoint as="offset" />
          </mxGeometry>
        </mxCell>
        <mxCell id="A8jI9ixNdDlGXySxQDu9-16" style="edgeStyle=orthogonalEdgeStyle;shape=connector;rounded=0;orthogonalLoop=1;jettySize=auto;html=1;exitX=1;exitY=0.5;exitDx=0;exitDy=0;entryX=0;entryY=0.5;entryDx=0;entryDy=0;labelBackgroundColor=default;strokeColor=#000000;strokeWidth=2;align=center;verticalAlign=middle;fontFamily=Helvetica;fontSize=12;fontColor=#000000;endArrow=openThin;endFill=0;" parent="WIyWlLk6GJQsqaUBKTNV-1" source="A8jI9ixNdDlGXySxQDu9-6" target="A8jI9ixNdDlGXySxQDu9-15" edge="1">
          <mxGeometry relative="1" as="geometry" />
        </mxCell>
        <mxCell id="A8jI9ixNdDlGXySxQDu9-6" value="Is a new search&lt;br&gt;term found?" style="rhombus;whiteSpace=wrap;html=1;rounded=1;strokeColor=#000000;strokeWidth=2;align=center;verticalAlign=middle;fontFamily=Helvetica;fontSize=12;fontColor=#000000;fillColor=#FFFFFF;" parent="WIyWlLk6GJQsqaUBKTNV-1" vertex="1">
          <mxGeometry x="197.5" y="391" width="145" height="130" as="geometry" />
        </mxCell>
        <mxCell id="A8jI9ixNdDlGXySxQDu9-14" style="edgeStyle=orthogonalEdgeStyle;shape=connector;rounded=0;orthogonalLoop=1;jettySize=auto;html=1;entryX=0;entryY=0.5;entryDx=0;entryDy=0;labelBackgroundColor=default;strokeColor=#000000;strokeWidth=2;align=center;verticalAlign=middle;fontFamily=Helvetica;fontSize=12;fontColor=#000000;endArrow=openThin;endFill=0;" parent="WIyWlLk6GJQsqaUBKTNV-1" source="A8jI9ixNdDlGXySxQDu9-7" target="A8jI9ixNdDlGXySxQDu9-4" edge="1">
          <mxGeometry relative="1" as="geometry">
            <Array as="points">
              <mxPoint x="86" y="591" />
              <mxPoint x="86" y="221" />
            </Array>
          </mxGeometry>
        </mxCell>
        <mxCell id="A8jI9ixNdDlGXySxQDu9-7" value="Step 4. Modify the search string" style="rounded=1;whiteSpace=wrap;html=1;fontColor=#000000;strokeColor=#000000;strokeWidth=2;fillColor=#FFFFFF;" parent="WIyWlLk6GJQsqaUBKTNV-1" vertex="1">
          <mxGeometry x="125" y="561" width="290" height="60" as="geometry" />
        </mxCell>
        <mxCell id="A8jI9ixNdDlGXySxQDu9-15" value="End" style="ellipse;whiteSpace=wrap;html=1;aspect=fixed;strokeColor=#000000;strokeWidth=2;fillColor=#FFFFFF;fontColor=#000000;" parent="WIyWlLk6GJQsqaUBKTNV-1" vertex="1">
          <mxGeometry x="421" y="430" width="52" height="52" as="geometry" />
        </mxCell>
        <mxCell id="A8jI9ixNdDlGXySxQDu9-19" value="&lt;div&gt;&lt;font style=&quot;text-align: center;&quot; face=&quot;Verdana&quot;&gt;(&lt;/font&gt;&lt;/div&gt;&lt;div&gt;&lt;font style=&quot;text-align: center;&quot; face=&quot;Verdana&quot;&gt;&amp;nbsp; &amp;nbsp; TITLE(&quot;multi-agent&quot; OR multiagent)&lt;br&gt;&amp;nbsp; &amp;nbsp; OR AUTHKEY(&lt;/font&gt;&lt;span style=&quot;text-align: center; font-family: Verdana;&quot;&gt;&quot;multi-agent&quot; OR multiagent&lt;/span&gt;&lt;font style=&quot;text-align: center;&quot; face=&quot;Verdana&quot;&gt;)&lt;/font&gt;&lt;br&gt;&lt;/div&gt;&lt;div&gt;&lt;font style=&quot;text-align: center;&quot; face=&quot;Verdana&quot;&gt;)&lt;/font&gt;&lt;/div&gt;&lt;div&gt;&lt;font style=&quot;text-align: center;&quot; face=&quot;Verdana&quot;&gt;AND TITLE-ABS-KEY(&lt;/font&gt;&lt;/div&gt;&lt;div&gt;&lt;font style=&quot;text-align: center;&quot; face=&quot;Verdana&quot;&gt;&amp;nbsp; &amp;nbsp; &quot;supply chain&quot;&amp;nbsp;&lt;/font&gt;&lt;/div&gt;&lt;div&gt;&lt;font style=&quot;text-align: center;&quot; face=&quot;Verdana&quot;&gt;&amp;nbsp; &amp;nbsp; OR &quot;city logistics&quot;&lt;/font&gt;&lt;/div&gt;&lt;div&gt;&lt;font style=&quot;text-align: center;&quot; face=&quot;Verdana&quot;&gt;&amp;nbsp; &amp;nbsp; OR &quot;urban logistics&quot;&lt;/font&gt;&lt;/div&gt;&lt;div&gt;&lt;font style=&quot;text-align: center;&quot; face=&quot;Verdana&quot;&gt;&amp;nbsp; &amp;nbsp; OR &quot;urban freight&quot;&lt;/font&gt;&lt;/div&gt;&lt;div&gt;&lt;font style=&quot;text-align: center;&quot; face=&quot;Verdana&quot;&gt;&amp;nbsp; &amp;nbsp; OR &quot;last mile&quot;&lt;/font&gt;&lt;/div&gt;&lt;div&gt;&lt;font style=&quot;text-align: center;&quot; face=&quot;Verdana&quot;&gt;&amp;nbsp; &amp;nbsp; OR &quot;urban delivery&quot;&lt;/font&gt;&lt;/div&gt;&lt;div&gt;&lt;font style=&quot;text-align: center;&quot; face=&quot;Verdana&quot;&gt;)&lt;/font&gt;&lt;/div&gt;" style="text;html=1;strokeColor=none;fillColor=none;align=left;verticalAlign=middle;whiteSpace=wrap;rounded=0;fontSize=12;fontFamily=Helvetica;fontColor=#000000;" parent="WIyWlLk6GJQsqaUBKTNV-1" vertex="1">
          <mxGeometry x="473" y="355" width="296" height="184.5" as="geometry" />
        </mxCell>
      </root>
    </mxGraphModel>
  </diagram>
</mxfile>
